<?xml version="1.0" standalone="no"?><!DOCTYPE svg PUBLIC "-//W3C//DTD SVG 1.1//EN" "http://www.w3.org/Graphics/SVG/1.1/DTD/svg11.dtd"><svg class="icon" width="128px" height="128.00px" viewBox="0 0 1024 1024" version="1.1" xmlns="http://www.w3.org/2000/svg"><path d="M0 512c0 283.569231 228.430769 512 512 512s512-228.430769 512-512S795.569231 0 512 0 0 228.430769 0 512z" fill="#E64F4F" /><path d="M114.215385 512c0 220.553846 177.230769 397.784615 397.784615 397.784615S909.784615 732.553846 909.784615 512 732.553846 114.215385 512 114.215385 114.215385 291.446154 114.215385 512z" fill="#E64F4F" /><path d="M720.738462 311.138462c11.815385 11.815385 11.815385 31.507692 0 39.384615l-362.338462 362.338461c-11.815385 11.815385-31.507692 11.815385-39.384615 0-11.815385-11.815385-11.815385-31.507692 0-39.384615l362.338461-362.338461c11.815385-11.815385 31.507692-11.815385 39.384616 0z" fill="#FFFFFF" /><path d="M319.015385 311.138462c11.815385-11.815385 31.507692-11.815385 39.384615 0l362.338462 362.338461c11.815385 11.815385 11.815385 31.507692 0 39.384615-11.815385 11.815385-31.507692 11.815385-39.384616 0L319.015385 350.523077c-7.876923-11.815385-7.876923-27.569231 0-39.384615z" fill="#FFFFFF" /></svg>