<?xml version="1.0" standalone="no"?><!DOCTYPE svg PUBLIC "-//W3C//DTD SVG 1.1//EN" "http://www.w3.org/Graphics/SVG/1.1/DTD/svg11.dtd"><svg class="icon" width="128px" height="128.00px" viewBox="0 0 1024 1024" version="1.1" xmlns="http://www.w3.org/2000/svg"><path d="M761.7 382.5c-5.1 1.4-20.7 6.6-34.7 11.4-13.9 4.9-32.2 11.1-40.6 13.9-8.4 2.8-23.9 8.2-34.5 11.9-18.1 6.4-37 10.9-74.1 17.7-13.2 2.4-20.9 2.9-44 2.9-43.2 0-57.3-3-135.3-28.4-18-5.9-38.7-12-46-13.5-11.9-2.6-14.5-2.7-24.9-1.4-50.3 6.5-83.5 32-104.6 80.2l-4.9 11.2-0.1 50.6 4.8 12.2c10.3 26.2 23.3 43.8 43.7 58.9 12.7 9.4 24.3 14.4 64.4 27.4 70.9 23 88.2 27.3 140.9 34.9 23.7 3.4 102.6 3.5 125.3 0 59.4-9 94.9-18.4 200.5-53.1 58.5-19.2 62.6-21.8 91.1-56.5 5.4-6.6 9-14.8 16.8-38.4 3-9.1 3.5-12.9 3.5-26.7 0-13.4-0.6-18.1-3.5-28.1-4.3-14.9-13.1-33.6-20.4-43.5-13-17.6-35.3-33.6-57.4-41.2-12-4.1-13.8-4.4-34.7-4.7-18.5-0.2-23.4 0.1-31.3 2.3z" fill="#FFBA6C" /><path d="M339.7 396.1c3.4 0.2 7.1 0.9 13 2.2 5.5 1.2 18.5 4.9 32.2 9.2l1.7 0.6 8.1 5.9c18.2 16 29.5 38.1 29.5 62.6 0 48.9-45.1 88.5-100.7 88.5-48.7 0-89.3-30.3-98.7-70.7l-1.9-16.6 0.2-0.4c21.1-48.3 54.3-73.8 104.6-80.4 5.3-0.8 8.5-1.1 12-0.9zM781.5 380c3.2 0 7 0 11.6 0.1 20.8 0.4 22.7 0.6 34.6 4.7l4.7 1.8 1.7 2c6.3 9.3 9.5 20.3 11 36.9 1.5 16.7 1.3 19.1-2.6 29.4-2.8 7.4-7.5 14.9-14.1 22-8.6 9.3-12.5 11.8-29.8 19.1-10.9 4.6-29 12.7-40.2 18-62.4 29.5-69.9 31.9-124.1 40.1-20 3-92.8 5.5-111.6 3.8-23.5-2.1-43.4-16.1-55.5-39-6.7-12.8-6.9-13.8-6.8-31.8 0.1-17.7 0.4-19 6.2-28.2 3.9-6.2 9.3-12.7 15.3-18.8l3.8-3.4 7 1.3c12.9 1.9 25 2.3 41.2 2.3 23 0 30.8-0.5 44-2.9 37.2-6.8 56.1-11.3 74.1-17.7 10.5-3.8 26-9.1 34.5-11.9 8.4-2.8 26.7-9.1 40.6-14 13.9-4.9 29.5-10 34.6-11.4 6-1.7 10.3-2.3 19.8-2.4z" fill="#FFFDF8" fill-opacity=".51" /><path d="M171.6 438.2c-14.7 8.8-19.9 14-28.7 28.7-2.6 4.4-2.9 6.2-2.3 19 0.5 12.3 1.1 15.1 4.6 22.1 7.6 15.2 17.9 22.7 39.3 28.4l22.7 6.1c26.3 7.1 84.6 21.8 94.6 23.9 29.2 6.1 37.1 7.6 50.7 9.9 14.5 2.4 32.7 4.9 61.3 8.3 19.9 2.4 116.7 2.4 138.6 0 75.9-8.2 128.2-17.5 244.6-43.8 36.8-8.3 41.3-9.9 49.3-17.8 9.4-9.4 12.7-19.1 12.7-37.3 0-12.5-0.4-14.9-3.7-22.2-6.9-15.3-22.3-25.3-42.1-27.4-10.5-1.1-13-0.9-30.1 3-10.3 2.3-26.8 6-36.7 8.2-104 23.1-156.9 31.9-220 36.5-47.7 3.5-58.8 3.6-87.5 0.6-67.1-6.9-99.3-13.2-206.2-40.5-23.1-5.9-31.9-7.6-42.7-8-12.2-0.5-14-0.3-18.4 2.3z" fill="#F9545B" /><path d="M787.9 457.7c-1.4 2-3.5 8.3-4.8 13.9s-3.5 11.8-5 13.6c-3.1 3.9-1.7 4.3-27.2-6.3-19.4-8-29.2-9.4-37.5-5.2-2.9 1.5-10.4 8.1-16.7 14.8-13.3 14.1-12.6 14-33.2 8.1-17.6-5-31.9-5.4-40.2-1.2-3 1.5-12.3 9.4-20.7 17.5l-15.2 14.7-7.6-1.4c-4.2-0.8-13.9-3.9-21.6-7-13.3-5.3-15.8-5.8-28.9-5.4-2.5 0.1-8.6 3.7-18.2 10.8-11.5 8.5-15.4 10.7-19 10.7-3 0-9.9-2.8-20.2-8.2-14.8-7.8-16-8.2-23-7.6-8.6 0.7-27.9 9.2-38.8 16.9-3.3 2.4-8.2-0.1-20.4-10.4-15.4-12.9-18.8-14.7-27.5-14.7-6.4 0-9 1-20.5 7.3-7.2 4-14.6 7.3-16.3 7.3-3.2 0-6.3-3.9-15.5-19-2.1-3.5-6.1-7.9-8.8-9.7-6.9-4.7-17.8-3.9-28.7 2-4.3 2.3-8.2 3.9-8.8 3.5-0.6-0.4-2.7-5.9-4.7-12.2-4.5-14.3-8.4-20.7-14.6-23.6-4.1-2-5.9-2.1-12.6-0.7-4.3 0.8-11.4 2.8-15.7 4.4l-7.8 2.9 0.3 6.9c0.4 9.9 3.1 11 13.6 5.5 4.4-2.3 10-4.5 12.4-5l4.4-0.8 5.6 15.1c8.7 23.5 11.7 25.3 33.8 19.6 7.4-1.9 14.3-3.5 15.3-3.5s5.6 5.7 10.1 12.6c13.5 20.8 19 22.2 40.7 10.7 13.1-7 18.1-8.4 23-6.4 1.2 0.5 7.3 5.1 13.5 10.1 13.7 11.2 17.4 12.9 29 12.9 8.8 0 9.2-0.2 21-8.1 11.1-7.4 12.5-8.1 17.7-7.5 3.1 0.3 10 2.6 15.4 4.9 16.8 7.4 25.4 10.7 28.3 10.7 1.6 0 5.8-2 9.5-4.5 11.3-7.6 25.8-15.3 30.7-16.2 5.1-1 17.4 2 33.3 8.1 6 2.3 12.2 3.6 17.3 3.7 10.1 0.2 14.4-2.5 28.5-18 5.6-6.2 12.3-12.5 14.9-14.1 5.4-3.3 9.2-3.1 35.1 1.3 9 1.5 19.5 2.8 23.4 2.7 8.8-0.1 12.5-2.9 23.7-17.9 8-10.7 8.1-10.8 13.6-10.6 3.1 0.1 11.9 3 20 6.4 22.3 9.5 27.2 11.2 31.9 11.2 7.2 0 10.9-2.6 14.4-9.8 1.8-3.7 5.4-10.6 8-15.2 4-7 4.8-9.7 4.8-16.3v-8h-5.3c-4.7 0-6.2 0.7-8.2 3.7z" fill="#FAD01B" /><path d="M282.7 534.1c3.4 0.2 7.1 0.9 13 2.2 5.5 1.2 18.5 4.9 32.2 9.2l1.7 0.6 8.1 5.9c18.2 16 29.5 38.1 29.5 62.6 0 48.9-45.1 88.5-100.7 88.5-48.7 0-89.3-30.3-98.7-70.7l-1.9-16.6 0.2-0.4c21.1-48.3 54.3-73.8 104.6-80.4 5.3-0.8 8.5-1.1 12-0.9zM724.5 518c3.2 0 7 0 11.6 0.1 20.8 0.4 22.7 0.6 34.6 4.7l4.7 1.8 1.7 2c6.3 9.3 9.5 20.3 11 36.9 1.5 16.7 1.3 19.1-2.6 29.4-2.8 7.4-7.5 14.9-14.1 22-8.6 9.3-12.5 11.8-29.8 19.1-10.9 4.6-29 12.7-40.2 18-62.4 29.5-69.9 31.9-124.1 40.1-20 3-92.8 5.5-111.6 3.8-23.5-2.1-43.4-16.1-55.5-39-6.7-12.8-6.9-13.8-6.8-31.8 0.1-17.7 0.4-19 6.2-28.2 3.9-6.2 9.3-12.7 15.3-18.8l3.8-3.4 7 1.3c12.9 1.9 25 2.3 41.2 2.3 23 0 30.8-0.5 44-2.9 37.2-6.8 56.1-11.3 74.1-17.7 10.5-3.8 26-9.1 34.5-11.9 8.4-2.8 26.7-9.1 40.6-14 13.9-4.9 29.5-10 34.6-11.4 6-1.7 10.3-2.3 19.8-2.4z" fill="#FFFDF8" fill-opacity=".51" /><path d="M700.5 473.3c-6.6 1.7-19.8 6-29.3 9.4-16.6 6-52.1 17.9-96.8 32.5-13.1 4.3-28 8-40 10-10.5 1.8-25.1 4.2-32.4 5.5-11.5 2-16.4 2.1-36.6 0.9-42.7-2.5-50.5-4.3-123.3-28.2-22-7.2-43.6-13.9-48-14.8-13-2.7-34.4-2-44.6 1.4-36.8 12.4-53 22.3-68.3 41.3-7.7 9.6-17.5 32.5-21.5 50.2-2.5 11.1-2.9 33.2-0.7 47.4 3.7 24.7 21.2 52 45.2 70.5 10.2 7.9 18.6 11.9 42 20 70.8 24.7 110 35.1 161.9 43.2 22.5 3.5 106.4 3.5 130.6 0 43-6.3 57.9-9.1 72.7-13.5 8.7-2.6 29.4-8.4 45.9-12.9 17.5-4.7 42.1-12.6 59.3-19.1 16.1-6.1 36.2-13.5 44.6-16.7 34.6-12.8 33.6-12.2 52-30.6 18.6-18.6 20.4-21.7 31.3-53.8 3.5-10.4 3.6-10.6 2.3-32.6-1.5-26.4-4.6-38.2-14.5-55-8-13.6-28.3-34.5-39.8-41.1-22-12.6-39.1-17.2-63.3-17.2-13.2 0-19.2 0.7-28.7 3.2z" fill="#FFBA6C" /><path d="M274.9 487.1c3.4 0.2 7.1 0.9 13 2.2 5.5 1.2 18.5 4.9 32.3 9.2l1.8 0.6 8.1 5.9c18.3 16 29.5 38.1 29.5 62.6 0 48.9-45.2 88.5-100.9 88.5-48.7 0-89.4-30.3-98.8-70.7l-1.9-16.6 0.2-0.4c21.2-48.3 54.4-73.8 104.8-80.4 5.2-0.8 8.4-1.1 11.9-0.9zM717.4 471c3.2 0 7 0 11.6 0.1 20.9 0.4 22.7 0.6 34.7 4.7l4.7 1.8 1.7 2c6.4 9.3 9.5 20.3 11 36.9 1.5 16.7 1.3 19.1-2.6 29.4-2.8 7.4-7.6 14.9-14.1 22-8.6 9.3-12.5 11.8-29.8 19.1-10.9 4.6-29.1 12.7-40.3 18-62.5 29.5-70 31.9-124.3 40.1-20.1 3-92.9 5.5-111.8 3.8-23.6-2.1-43.5-16.1-55.6-39-6.7-12.8-7-13.8-6.8-31.8 0.1-17.7 0.4-19 6.2-28.2 3.9-6.2 9.3-12.7 15.3-18.8l3.8-3.4 7 1.3c12.9 1.9 25.1 2.3 41.3 2.3 23.1 0 30.9-0.5 44-2.9 37.2-6.8 56.2-11.3 74.3-17.7 10.5-3.8 26.1-9.1 34.5-11.9s26.8-9.1 40.7-14 29.6-10 34.7-11.4c6-1.7 10.2-2.3 19.8-2.4z" fill="#FFFDF8" fill-opacity=".51" /></svg>