<?xml version="1.0" standalone="no"?><!DOCTYPE svg PUBLIC "-//W3C//DTD SVG 1.1//EN" "http://www.w3.org/Graphics/SVG/1.1/DTD/svg11.dtd"><svg class="icon" width="128px" height="128.00px" viewBox="0 0 1024 1024" version="1.1" xmlns="http://www.w3.org/2000/svg"><path d="M512 512m-512 0a512 512 0 1 0 1024 0 512 512 0 1 0-1024 0Z" fill="#3377FF" /><path d="M755.2 300.8c12.8 12.8 12.8 32-6.4 44.8-12.8 12.8-32 12.8-44.8-6.4C659.2 288 588.8 256 512 256 371.2 256 256 371.2 256 512s115.2 256 256 256 256-115.2 256-256c0-19.2 12.8-32 32-32s32 12.8 32 32c0 179.2-140.8 320-320 320s-320-140.8-320-320 140.8-320 320-320c96 0 179.2 38.4 243.2 108.8z" fill="#FFFFFF" /><path d="M704 320V160c0-19.2 12.8-32 32-32s32 12.8 32 32v192c0 19.2-12.8 32-32 32h-192c-19.2 0-32-12.8-32-32s12.8-32 32-32H704z" fill="#FFFFFF" /></svg>